<svg xmlns="http://www.w3.org/2000/svg" version="1.1" xmlns:xlink="http://www.w3.org/1999/xlink" xmlns:svgjs="http://svgjs.com/svgjs" width="1440" height="1500" preserveAspectRatio="none" viewBox="0 0 1440 1500"><g mask="url(&quot;#SvgjsMask1090&quot;)" fill="none"><rect width="1440" height="1500" x="0" y="0" fill="rgba(43, 47, 49, 1)"></rect><path d="M0,640.641C116.968,625.237,194.691,519.784,300.476,467.55C424.415,406.353,591.317,418.563,674.034,307.821C758.725,194.435,772.788,29.555,727.87,-104.652C684.793,-233.358,548.259,-298.313,442.637,-383.548C355.452,-453.905,271.284,-526.294,164.274,-559.464C56.136,-592.984,-62.589,-613.639,-168.218,-572.898C-270.923,-533.284,-312.165,-414.419,-396.183,-343.295C-501.242,-254.359,-668.151,-230.401,-722.299,-103.851C-777.815,25.898,-743.612,184.94,-674.962,308.245C-608.328,427.93,-478.929,493.488,-356.039,554.007C-244.198,609.085,-123.6,656.918,0,640.641" fill="#1c1f20"></path><path d="M1440 2153.23C1561.604 2155.8559999999998 1671.519 2084.2110000000002 1767.13 2009.025 1856.524 1938.7269999999999 1928.157 1847.406 1965.501 1739.988 2000.8400000000001 1638.336 1996.08 1528.273 1970.614 1423.709 1946.798 1325.917 1879.904 1250.604 1825.666 1165.818 1761.231 1065.093 1736.566 914.37 1622.285 879.196 1508.241 844.095 1402.284 952.407 1293.809 1002.12 1201.684 1044.34 1106.158 1076.981 1034.453 1148.591 959.06 1223.884 887.664 1313.013 876.407 1418.968 865.28 1523.701 933.259 1615.674 974.5350000000001 1712.571 1017.017 1812.299 1043.105 1920.568 1121.824 1995.091 1209.609 2078.198 1319.144 2150.62 1440 2153.23" fill="#3a4042"></path></g><defs><mask id="SvgjsMask1090"><rect width="1440" height="1500" fill="#ffffff"></rect></mask></defs></svg>